<?xml version="1.0" encoding="UTF-8"?>
<svg id="Capa_1" data-name="Capa 1" xmlns="http://www.w3.org/2000/svg" viewBox="0 0 1193.64 817.02">
  <defs>
    <style>
      .cls-1 {
        fill: #fff;
      }

      .cls-2 {
        font-size: 141.53px;
      }

      .cls-2, .cls-3 {
        font-family: ReservoirGrunge, ReservoirGrunge;
      }

      .cls-2, .cls-3, .cls-4 {
        fill: #1d1d1b;
      }

      .cls-5 {
        fill: #009ee2;
      }

      .cls-3 {
        font-size: 159.22px;
      }
    </style>
  </defs>
  <rect class="cls-1" width="1193.64" height="817.02"/>
  <g>
    <g>
      <text class="cls-2" transform="translate(305.45 519.46)"><tspan x="0" y="0">Code</tspan></text>
      <text class="cls-3" transform="translate(326.98 676.61)"><tspan x="0" y="0">ART</tspan></text>
    </g>
    <g>
      <path class="cls-4" d="m527.64,111.5s-95.09,124.62-164.16,254.25l116.62-10.01s83.08-131.63,163.66-225.22l-116.11-19.02Z"/>
      <path class="cls-4" d="m667.77,190.1s43.42-30.06,46.67-30.69c0,0,54.26,47.84,93.72,75.08,0,0-59.14,36.82-93.51,65.68,0,0-19.23-12.48-46.88-35.28l45.88-35.1-45.88-39.7Z"/>
      <path class="cls-5" d="m632.4,197.31s25.7,15.78,41.55,31.46c0,0-31.05,40.71-41.55,52.39,0,0,28.54,27.53,41.55,44.54,0,0-35.43,37.51-41.54,38.71,0,0-36.96-46.72-82.9-76.35,0,0,30.43-18.67,82.89-90.76Z"/>
    </g>
  </g>
</svg>