<?xml version="1.0" encoding="UTF-8"?>
<svg id="Capa_1" data-name="Capa 1" xmlns="http://www.w3.org/2000/svg" xmlns:xlink="http://www.w3.org/1999/xlink" viewBox="0 0 974.18 406.01">
  <defs>
    <style>
      .cls-1 {
        letter-spacing: -.01em;
      }

      .cls-2 {
        letter-spacing: .04em;
      }

      .cls-3, .cls-4 {
        fill: #fff;
      }

      .cls-4, .cls-5 {
        font-family: ReservoirGrunge, ReservoirGrunge;
      }

      .cls-4, .cls-6 {
        font-size: 30.86px;
      }

      .cls-7 {
        letter-spacing: 0em;
      }

      .cls-8 {
        clip-path: url(#clippath-2);
      }

      .cls-9 {
        letter-spacing: 0em;
      }

      .cls-10, .cls-11 {
        fill: #009fe3;
      }

      .cls-12 {
        clip-path: url(#clippath-1);
      }

      .cls-13 {
        letter-spacing: -.01em;
      }

      .cls-14 {
        letter-spacing: -.02em;
      }

      .cls-15 {
        letter-spacing: -.01em;
      }

      .cls-16 {
        clip-path: url(#clippath);
      }

      .cls-17 {
        fill: none;
      }

      .cls-5 {
        font-size: 58.14px;
      }

      .cls-6 {
        font-family: Rambla-Bold, Rambla;
        font-weight: 700;
      }

      .cls-6, .cls-18 {
        fill: #1d1d1b;
      }

      .cls-11 {
        stroke: #1d1d1b;
        stroke-miterlimit: 10;
      }
    </style>
    <clipPath id="clippath">
      <rect class="cls-17" x="153.68" y="48.41" width="820" height="312"/>
    </clipPath>
    <clipPath id="clippath-1">
      <path class="cls-17" d="m203.16,6.01s61.03,37.47,98.66,74.71c0,0-73.73,96.66-98.66,124.39,0,0,67.77,65.36,98.66,105.77,0,0-84.12,89.08-98.63,91.92,0,0-87.76-110.93-196.85-181.29,0,0,72.25-44.33,196.81-215.5Z"/>
    </clipPath>
    <clipPath id="clippath-2">
      <rect class="cls-17" width="380" height="406.01"/>
    </clipPath>
  </defs>
  <g class="cls-16">
    <rect class="cls-11" x="153.68" y="48.41" width="820" height="312"/>
    <path class="cls-3" d="m244.66,6.01s61.03,37.47,98.66,74.71c0,0-73.73,96.66-98.66,124.39,0,0,67.77,65.36,98.66,105.77,0,0-84.12,89.08-98.63,91.92,0,0-87.76-110.93-196.85-181.29,0,0,72.25-44.33,196.81-215.5Z"/>
    <path class="cls-18" d="m228.68,6.01s61.03,37.47,98.66,74.71c0,0-73.73,96.66-98.66,124.39,0,0,67.77,65.36,98.66,105.77,0,0-84.12,89.08-98.63,91.92,0,0-87.76-110.93-196.85-181.29,0,0,72.25-44.33,196.81-215.5Z"/>
    <path class="cls-3" d="m203.16,6.02s61.03,37.47,98.66,74.71c0,0-73.73,96.66-98.66,124.39,0,0,67.77,65.36,98.66,105.77,0,0-84.12,89.08-98.63,91.92,0,0-87.76-110.93-196.85-181.29,0,0,72.25-44.33,196.81-215.5Z"/>
    <g class="cls-12">
      <g class="cls-8">
        <g>
          <g id="_Repetición_de_cuadrícula_" data-name="&amp;lt;Repetición de cuadrícula&amp;gt;">
            <path class="cls-18" d="m40.73,3.98s14.03.33,14.83.7c0,0,4.18,18.76,8.4,30.79,0,0-18.46-1.34-30.36-.51,0,0-2.18-5.69-4.55-14.91l15.35-.37-3.65-15.7Z"/>
            <path class="cls-10" d="m32,0s3.05,7.41,4.01,13.26c0,0-13.04,3.89-17.12,4.76,0,0,1.83,10.38,1.96,16.07,0,0-13.48,2.52-14.98,1.82,0,0-.64-15.82-5.87-29.37,0,0,9.46.75,32-6.54Z"/>
          </g>
          <g id="_Repetición_de_cuadrícula_-2" data-name="&amp;lt;Repetición de cuadrícula&amp;gt;">
            <path class="cls-18" d="m106.68,3.98s14.03.33,14.83.7c0,0,4.18,18.76,8.4,30.79,0,0-18.46-1.34-30.36-.51,0,0-2.18-5.69-4.55-14.91l15.35-.37-3.65-15.7Z"/>
            <path class="cls-10" d="m97.95,0s3.05,7.41,4.01,13.26c0,0-13.04,3.89-17.12,4.76,0,0,1.83,10.38,1.96,16.07,0,0-13.48,2.52-14.98,1.82,0,0-.64-15.82-5.87-29.37,0,0,9.46.75,32-6.54Z"/>
          </g>
          <g id="_Repetición_de_cuadrícula_-3" data-name="&amp;lt;Repetición de cuadrícula&amp;gt;">
            <path class="cls-18" d="m172.62,3.98s14.03.33,14.83.7c0,0,4.18,18.76,8.4,30.79,0,0-18.46-1.34-30.36-.51,0,0-2.18-5.69-4.55-14.91l15.35-.37-3.65-15.7Z"/>
            <path class="cls-10" d="m163.9,0s3.05,7.41,4.01,13.26c0,0-13.04,3.89-17.12,4.76,0,0,1.83,10.38,1.96,16.07,0,0-13.48,2.52-14.98,1.82,0,0-.64-15.82-5.87-29.37,0,0,9.46.75,32-6.54Z"/>
          </g>
          <g id="_Repetición_de_cuadrícula_-4" data-name="&amp;lt;Repetición de cuadrícula&amp;gt;">
            <path class="cls-18" d="m238.57,3.98s14.03.33,14.83.7c0,0,4.18,18.76,8.4,30.79,0,0-18.46-1.34-30.36-.51,0,0-2.18-5.69-4.55-14.91l15.35-.37-3.65-15.7Z"/>
            <path class="cls-10" d="m229.84,0s3.05,7.41,4.01,13.26c0,0-13.04,3.89-17.12,4.76,0,0,1.83,10.38,1.96,16.07,0,0-13.48,2.52-14.98,1.82,0,0-.64-15.82-5.87-29.37,0,0,9.46.75,32-6.54Z"/>
          </g>
          <g id="_Repetición_de_cuadrícula_-5" data-name="&amp;lt;Repetición de cuadrícula&amp;gt;">
            <path class="cls-18" d="m304.52,3.98s14.03.33,14.83.7c0,0,4.18,18.76,8.4,30.79,0,0-18.46-1.34-30.36-.51,0,0-2.18-5.69-4.55-14.91l15.35-.37-3.65-15.7Z"/>
            <path class="cls-10" d="m295.79,0s3.05,7.41,4.01,13.26c0,0-13.04,3.89-17.12,4.76,0,0,1.83,10.38,1.96,16.07,0,0-13.48,2.52-14.98,1.82,0,0-.64-15.82-5.87-29.37,0,0,9.46.75,32-6.54Z"/>
          </g>
          <g id="_Repetición_de_cuadrícula_-6" data-name="&amp;lt;Repetición de cuadrícula&amp;gt;">
            <path class="cls-18" d="m370.47,3.98s14.03.33,14.83.7c0,0,4.18,18.76,8.4,30.79,0,0-18.46-1.34-30.36-.51,0,0-2.18-5.69-4.55-14.91l15.35-.37-3.65-15.7Z"/>
            <path class="cls-10" d="m361.74,0s3.05,7.41,4.01,13.26c0,0-13.04,3.89-17.12,4.76,0,0,1.83,10.38,1.96,16.07,0,0-13.48,2.52-14.98,1.82,0,0-.64-15.82-5.87-29.37,0,0,9.46.75,32-6.54Z"/>
          </g>
          <g id="_Repetición_de_cuadrícula_-7" data-name="&amp;lt;Repetición de cuadrícula&amp;gt;">
            <path class="cls-18" d="m40.73,50.01s14.03.33,14.83.7c0,0,4.18,18.76,8.4,30.79,0,0-18.46-1.34-30.36-.51,0,0-2.18-5.69-4.55-14.91l15.35-.37-3.65-15.7Z"/>
            <path class="cls-10" d="m32,46.03s3.05,7.41,4.01,13.26c0,0-13.04,3.89-17.12,4.76,0,0,1.83,10.38,1.96,16.07,0,0-13.48,2.52-14.98,1.82,0,0-.64-15.82-5.87-29.37,0,0,9.46.75,32-6.54Z"/>
          </g>
          <g id="_Repetición_de_cuadrícula_-8" data-name="&amp;lt;Repetición de cuadrícula&amp;gt;">
            <path class="cls-18" d="m106.68,50.01s14.03.33,14.83.7c0,0,4.18,18.76,8.4,30.79,0,0-18.46-1.34-30.36-.51,0,0-2.18-5.69-4.55-14.91l15.35-.37-3.65-15.7Z"/>
            <path class="cls-10" d="m97.95,46.03s3.05,7.41,4.01,13.26c0,0-13.04,3.89-17.12,4.76,0,0,1.83,10.38,1.96,16.07,0,0-13.48,2.52-14.98,1.82,0,0-.64-15.82-5.87-29.37,0,0,9.46.75,32-6.54Z"/>
          </g>
          <g id="_Repetición_de_cuadrícula_-9" data-name="&amp;lt;Repetición de cuadrícula&amp;gt;">
            <path class="cls-18" d="m172.62,50.01s14.03.33,14.83.7c0,0,4.18,18.76,8.4,30.79,0,0-18.46-1.34-30.36-.51,0,0-2.18-5.69-4.55-14.91l15.35-.37-3.65-15.7Z"/>
            <path class="cls-10" d="m163.9,46.03s3.05,7.41,4.01,13.26c0,0-13.04,3.89-17.12,4.76,0,0,1.83,10.38,1.96,16.07,0,0-13.48,2.52-14.98,1.82,0,0-.64-15.82-5.87-29.37,0,0,9.46.75,32-6.54Z"/>
          </g>
          <g id="_Repetición_de_cuadrícula_-10" data-name="&amp;lt;Repetición de cuadrícula&amp;gt;">
            <path class="cls-18" d="m238.57,50.01s14.03.33,14.83.7c0,0,4.18,18.76,8.4,30.79,0,0-18.46-1.34-30.36-.51,0,0-2.18-5.69-4.55-14.91l15.35-.37-3.65-15.7Z"/>
            <path class="cls-10" d="m229.84,46.03s3.05,7.41,4.01,13.26c0,0-13.04,3.89-17.12,4.76,0,0,1.83,10.38,1.96,16.07,0,0-13.48,2.52-14.98,1.82,0,0-.64-15.82-5.87-29.37,0,0,9.46.75,32-6.54Z"/>
          </g>
          <g id="_Repetición_de_cuadrícula_-11" data-name="&amp;lt;Repetición de cuadrícula&amp;gt;">
            <path class="cls-18" d="m304.52,50.01s14.03.33,14.83.7c0,0,4.18,18.76,8.4,30.79,0,0-18.46-1.34-30.36-.51,0,0-2.18-5.69-4.55-14.91l15.35-.37-3.65-15.7Z"/>
            <path class="cls-10" d="m295.79,46.03s3.05,7.41,4.01,13.26c0,0-13.04,3.89-17.12,4.76,0,0,1.83,10.38,1.96,16.07,0,0-13.48,2.52-14.98,1.82,0,0-.64-15.82-5.87-29.37,0,0,9.46.75,32-6.54Z"/>
          </g>
          <g id="_Repetición_de_cuadrícula_-12" data-name="&amp;lt;Repetición de cuadrícula&amp;gt;">
            <path class="cls-18" d="m370.47,50.01s14.03.33,14.83.7c0,0,4.18,18.76,8.4,30.79,0,0-18.46-1.34-30.36-.51,0,0-2.18-5.69-4.55-14.91l15.35-.37-3.65-15.7Z"/>
            <path class="cls-10" d="m361.74,46.03s3.05,7.41,4.01,13.26c0,0-13.04,3.89-17.12,4.76,0,0,1.83,10.38,1.96,16.07,0,0-13.48,2.52-14.98,1.82,0,0-.64-15.82-5.87-29.37,0,0,9.46.75,32-6.54Z"/>
          </g>
          <g id="_Repetición_de_cuadrícula_-13" data-name="&amp;lt;Repetición de cuadrícula&amp;gt;">
            <path class="cls-18" d="m40.73,96.04s14.03.33,14.83.7c0,0,4.18,18.76,8.4,30.79,0,0-18.46-1.34-30.36-.51,0,0-2.18-5.69-4.55-14.91l15.35-.37-3.65-15.7Z"/>
            <path class="cls-10" d="m32,92.05s3.05,7.41,4.01,13.26c0,0-13.04,3.89-17.12,4.76,0,0,1.83,10.38,1.96,16.07,0,0-13.48,2.52-14.98,1.82,0,0-.64-15.82-5.87-29.37,0,0,9.46.75,32-6.54Z"/>
          </g>
          <g id="_Repetición_de_cuadrícula_-14" data-name="&amp;lt;Repetición de cuadrícula&amp;gt;">
            <path class="cls-18" d="m106.68,96.04s14.03.33,14.83.7c0,0,4.18,18.76,8.4,30.79,0,0-18.46-1.34-30.36-.51,0,0-2.18-5.69-4.55-14.91l15.35-.37-3.65-15.7Z"/>
            <path class="cls-10" d="m97.95,92.05s3.05,7.41,4.01,13.26c0,0-13.04,3.89-17.12,4.76,0,0,1.83,10.38,1.96,16.07,0,0-13.48,2.52-14.98,1.82,0,0-.64-15.82-5.87-29.37,0,0,9.46.75,32-6.54Z"/>
          </g>
          <g id="_Repetición_de_cuadrícula_-15" data-name="&amp;lt;Repetición de cuadrícula&amp;gt;">
            <path class="cls-18" d="m172.62,96.04s14.03.33,14.83.7c0,0,4.18,18.76,8.4,30.79,0,0-18.46-1.34-30.36-.51,0,0-2.18-5.69-4.55-14.91l15.35-.37-3.65-15.7Z"/>
            <path class="cls-10" d="m163.9,92.05s3.05,7.41,4.01,13.26c0,0-13.04,3.89-17.12,4.76,0,0,1.83,10.38,1.96,16.07,0,0-13.48,2.52-14.98,1.82,0,0-.64-15.82-5.87-29.37,0,0,9.46.75,32-6.54Z"/>
          </g>
          <g id="_Repetición_de_cuadrícula_-16" data-name="&amp;lt;Repetición de cuadrícula&amp;gt;">
            <path class="cls-18" d="m238.57,96.04s14.03.33,14.83.7c0,0,4.18,18.76,8.4,30.79,0,0-18.46-1.34-30.36-.51,0,0-2.18-5.69-4.55-14.91l15.35-.37-3.65-15.7Z"/>
            <path class="cls-10" d="m229.84,92.05s3.05,7.41,4.01,13.26c0,0-13.04,3.89-17.12,4.76,0,0,1.83,10.38,1.96,16.07,0,0-13.48,2.52-14.98,1.82,0,0-.64-15.82-5.87-29.37,0,0,9.46.75,32-6.54Z"/>
          </g>
          <g id="_Repetición_de_cuadrícula_-17" data-name="&amp;lt;Repetición de cuadrícula&amp;gt;">
            <path class="cls-18" d="m304.52,96.04s14.03.33,14.83.7c0,0,4.18,18.76,8.4,30.79,0,0-18.46-1.34-30.36-.51,0,0-2.18-5.69-4.55-14.91l15.35-.37-3.65-15.7Z"/>
            <path class="cls-10" d="m295.79,92.05s3.05,7.41,4.01,13.26c0,0-13.04,3.89-17.12,4.76,0,0,1.83,10.38,1.96,16.07,0,0-13.48,2.52-14.98,1.82,0,0-.64-15.82-5.87-29.37,0,0,9.46.75,32-6.54Z"/>
          </g>
          <g id="_Repetición_de_cuadrícula_-18" data-name="&amp;lt;Repetición de cuadrícula&amp;gt;">
            <path class="cls-18" d="m370.47,96.04s14.03.33,14.83.7c0,0,4.18,18.76,8.4,30.79,0,0-18.46-1.34-30.36-.51,0,0-2.18-5.69-4.55-14.91l15.35-.37-3.65-15.7Z"/>
            <path class="cls-10" d="m361.74,92.05s3.05,7.41,4.01,13.26c0,0-13.04,3.89-17.12,4.76,0,0,1.83,10.38,1.96,16.07,0,0-13.48,2.52-14.98,1.82,0,0-.64-15.82-5.87-29.37,0,0,9.46.75,32-6.54Z"/>
          </g>
          <g id="_Repetición_de_cuadrícula_-19" data-name="&amp;lt;Repetición de cuadrícula&amp;gt;">
            <path class="cls-18" d="m40.73,142.06s14.03.33,14.83.7c0,0,4.18,18.76,8.4,30.79,0,0-18.46-1.34-30.36-.51,0,0-2.18-5.69-4.55-14.91l15.35-.37-3.65-15.7Z"/>
            <path class="cls-10" d="m32,138.08s3.05,7.41,4.01,13.26c0,0-13.04,3.89-17.12,4.76,0,0,1.83,10.38,1.96,16.07,0,0-13.48,2.52-14.98,1.82,0,0-.64-15.82-5.87-29.37,0,0,9.46.75,32-6.54Z"/>
          </g>
          <g id="_Repetición_de_cuadrícula_-20" data-name="&amp;lt;Repetición de cuadrícula&amp;gt;">
            <path class="cls-18" d="m106.68,142.06s14.03.33,14.83.7c0,0,4.18,18.76,8.4,30.79,0,0-18.46-1.34-30.36-.51,0,0-2.18-5.69-4.55-14.91l15.35-.37-3.65-15.7Z"/>
            <path class="cls-10" d="m97.95,138.08s3.05,7.41,4.01,13.26c0,0-13.04,3.89-17.12,4.76,0,0,1.83,10.38,1.96,16.07,0,0-13.48,2.52-14.98,1.82,0,0-.64-15.82-5.87-29.37,0,0,9.46.75,32-6.54Z"/>
          </g>
          <g id="_Repetición_de_cuadrícula_-21" data-name="&amp;lt;Repetición de cuadrícula&amp;gt;">
            <path class="cls-18" d="m172.62,142.06s14.03.33,14.83.7c0,0,4.18,18.76,8.4,30.79,0,0-18.46-1.34-30.36-.51,0,0-2.18-5.69-4.55-14.91l15.35-.37-3.65-15.7Z"/>
            <path class="cls-10" d="m163.9,138.08s3.05,7.41,4.01,13.26c0,0-13.04,3.89-17.12,4.76,0,0,1.83,10.38,1.96,16.07,0,0-13.48,2.52-14.98,1.82,0,0-.64-15.82-5.87-29.37,0,0,9.46.75,32-6.54Z"/>
          </g>
          <g id="_Repetición_de_cuadrícula_-22" data-name="&amp;lt;Repetición de cuadrícula&amp;gt;">
            <path class="cls-18" d="m238.57,142.06s14.03.33,14.83.7c0,0,4.18,18.76,8.4,30.79,0,0-18.46-1.34-30.36-.51,0,0-2.18-5.69-4.55-14.91l15.35-.37-3.65-15.7Z"/>
            <path class="cls-10" d="m229.84,138.08s3.05,7.41,4.01,13.26c0,0-13.04,3.89-17.12,4.76,0,0,1.83,10.38,1.96,16.07,0,0-13.48,2.52-14.98,1.82,0,0-.64-15.82-5.87-29.37,0,0,9.46.75,32-6.54Z"/>
          </g>
          <g id="_Repetición_de_cuadrícula_-23" data-name="&amp;lt;Repetición de cuadrícula&amp;gt;">
            <path class="cls-18" d="m304.52,142.06s14.03.33,14.83.7c0,0,4.18,18.76,8.4,30.79,0,0-18.46-1.34-30.36-.51,0,0-2.18-5.69-4.55-14.91l15.35-.37-3.65-15.7Z"/>
            <path class="cls-10" d="m295.79,138.08s3.05,7.41,4.01,13.26c0,0-13.04,3.89-17.12,4.76,0,0,1.83,10.38,1.96,16.07,0,0-13.48,2.52-14.98,1.82,0,0-.64-15.82-5.87-29.37,0,0,9.46.75,32-6.54Z"/>
          </g>
          <g id="_Repetición_de_cuadrícula_-24" data-name="&amp;lt;Repetición de cuadrícula&amp;gt;">
            <path class="cls-18" d="m370.47,142.06s14.03.33,14.83.7c0,0,4.18,18.76,8.4,30.79,0,0-18.46-1.34-30.36-.51,0,0-2.18-5.69-4.55-14.91l15.35-.37-3.65-15.7Z"/>
            <path class="cls-10" d="m361.74,138.08s3.05,7.41,4.01,13.26c0,0-13.04,3.89-17.12,4.76,0,0,1.83,10.38,1.96,16.07,0,0-13.48,2.52-14.98,1.82,0,0-.64-15.82-5.87-29.37,0,0,9.46.75,32-6.54Z"/>
          </g>
          <g id="_Repetición_de_cuadrícula_-25" data-name="&amp;lt;Repetición de cuadrícula&amp;gt;">
            <path class="cls-18" d="m40.73,188.09s14.03.33,14.83.7c0,0,4.18,18.76,8.4,30.79,0,0-18.46-1.34-30.36-.51,0,0-2.18-5.69-4.55-14.91l15.35-.37-3.65-15.7Z"/>
            <path class="cls-10" d="m32,184.11s3.05,7.41,4.01,13.26c0,0-13.04,3.89-17.12,4.76,0,0,1.83,10.38,1.96,16.07,0,0-13.48,2.52-14.98,1.82,0,0-.64-15.82-5.87-29.37,0,0,9.46.75,32-6.54Z"/>
          </g>
          <g id="_Repetición_de_cuadrícula_-26" data-name="&amp;lt;Repetición de cuadrícula&amp;gt;">
            <path class="cls-18" d="m106.68,188.09s14.03.33,14.83.7c0,0,4.18,18.76,8.4,30.79,0,0-18.46-1.34-30.36-.51,0,0-2.18-5.69-4.55-14.91l15.35-.37-3.65-15.7Z"/>
            <path class="cls-10" d="m97.95,184.11s3.05,7.41,4.01,13.26c0,0-13.04,3.89-17.12,4.76,0,0,1.83,10.38,1.96,16.07,0,0-13.48,2.52-14.98,1.82,0,0-.64-15.82-5.87-29.37,0,0,9.46.75,32-6.54Z"/>
          </g>
          <g id="_Repetición_de_cuadrícula_-27" data-name="&amp;lt;Repetición de cuadrícula&amp;gt;">
            <path class="cls-18" d="m172.62,188.09s14.03.33,14.83.7c0,0,4.18,18.76,8.4,30.79,0,0-18.46-1.34-30.36-.51,0,0-2.18-5.69-4.55-14.91l15.35-.37-3.65-15.7Z"/>
            <path class="cls-10" d="m163.9,184.11s3.05,7.41,4.01,13.26c0,0-13.04,3.89-17.12,4.76,0,0,1.83,10.38,1.96,16.07,0,0-13.48,2.52-14.98,1.82,0,0-.64-15.82-5.87-29.37,0,0,9.46.75,32-6.54Z"/>
          </g>
          <g id="_Repetición_de_cuadrícula_-28" data-name="&amp;lt;Repetición de cuadrícula&amp;gt;">
            <path class="cls-18" d="m238.57,188.09s14.03.33,14.83.7c0,0,4.18,18.76,8.4,30.79,0,0-18.46-1.34-30.36-.51,0,0-2.18-5.69-4.55-14.91l15.35-.37-3.65-15.7Z"/>
            <path class="cls-10" d="m229.84,184.11s3.05,7.41,4.01,13.26c0,0-13.04,3.89-17.12,4.76,0,0,1.83,10.38,1.96,16.07,0,0-13.48,2.52-14.98,1.82,0,0-.64-15.82-5.87-29.37,0,0,9.46.75,32-6.54Z"/>
          </g>
          <g id="_Repetición_de_cuadrícula_-29" data-name="&amp;lt;Repetición de cuadrícula&amp;gt;">
            <path class="cls-18" d="m304.52,188.09s14.03.33,14.83.7c0,0,4.18,18.76,8.4,30.79,0,0-18.46-1.34-30.36-.51,0,0-2.18-5.69-4.55-14.91l15.35-.37-3.65-15.7Z"/>
            <path class="cls-10" d="m295.79,184.11s3.05,7.41,4.01,13.26c0,0-13.04,3.89-17.12,4.76,0,0,1.83,10.38,1.96,16.07,0,0-13.48,2.52-14.98,1.82,0,0-.64-15.82-5.87-29.37,0,0,9.46.75,32-6.54Z"/>
          </g>
          <g id="_Repetición_de_cuadrícula_-30" data-name="&amp;lt;Repetición de cuadrícula&amp;gt;">
            <path class="cls-18" d="m370.47,188.09s14.03.33,14.83.7c0,0,4.18,18.76,8.4,30.79,0,0-18.46-1.34-30.36-.51,0,0-2.18-5.69-4.55-14.91l15.35-.37-3.65-15.7Z"/>
            <path class="cls-10" d="m361.74,184.11s3.05,7.41,4.01,13.26c0,0-13.04,3.89-17.12,4.76,0,0,1.83,10.38,1.96,16.07,0,0-13.48,2.52-14.98,1.82,0,0-.64-15.82-5.87-29.37,0,0,9.46.75,32-6.54Z"/>
          </g>
          <g id="_Repetición_de_cuadrícula_-31" data-name="&amp;lt;Repetición de cuadrícula&amp;gt;">
            <path class="cls-18" d="m40.73,234.12s14.03.33,14.83.7c0,0,4.18,18.76,8.4,30.79,0,0-18.46-1.34-30.36-.51,0,0-2.18-5.69-4.55-14.91l15.35-.37-3.65-15.7Z"/>
            <path class="cls-10" d="m32,230.13s3.05,7.41,4.01,13.26c0,0-13.04,3.89-17.12,4.76,0,0,1.83,10.38,1.96,16.07,0,0-13.48,2.52-14.98,1.82,0,0-.64-15.82-5.87-29.37,0,0,9.46.75,32-6.54Z"/>
          </g>
          <g id="_Repetición_de_cuadrícula_-32" data-name="&amp;lt;Repetición de cuadrícula&amp;gt;">
            <path class="cls-18" d="m106.68,234.12s14.03.33,14.83.7c0,0,4.18,18.76,8.4,30.79,0,0-18.46-1.34-30.36-.51,0,0-2.18-5.69-4.55-14.91l15.35-.37-3.65-15.7Z"/>
            <path class="cls-10" d="m97.95,230.13s3.05,7.41,4.01,13.26c0,0-13.04,3.89-17.12,4.76,0,0,1.83,10.38,1.96,16.07,0,0-13.48,2.52-14.98,1.82,0,0-.64-15.82-5.87-29.37,0,0,9.46.75,32-6.54Z"/>
          </g>
          <g id="_Repetición_de_cuadrícula_-33" data-name="&amp;lt;Repetición de cuadrícula&amp;gt;">
            <path class="cls-18" d="m172.62,234.12s14.03.33,14.83.7c0,0,4.18,18.76,8.4,30.79,0,0-18.46-1.34-30.36-.51,0,0-2.18-5.69-4.55-14.91l15.35-.37-3.65-15.7Z"/>
            <path class="cls-10" d="m163.9,230.13s3.05,7.41,4.01,13.26c0,0-13.04,3.89-17.12,4.76,0,0,1.83,10.38,1.96,16.07,0,0-13.48,2.52-14.98,1.82,0,0-.64-15.82-5.87-29.37,0,0,9.46.75,32-6.54Z"/>
          </g>
          <g id="_Repetición_de_cuadrícula_-34" data-name="&amp;lt;Repetición de cuadrícula&amp;gt;">
            <path class="cls-18" d="m238.57,234.12s14.03.33,14.83.7c0,0,4.18,18.76,8.4,30.79,0,0-18.46-1.34-30.36-.51,0,0-2.18-5.69-4.55-14.91l15.35-.37-3.65-15.7Z"/>
            <path class="cls-10" d="m229.84,230.13s3.05,7.41,4.01,13.26c0,0-13.04,3.89-17.12,4.76,0,0,1.83,10.38,1.96,16.07,0,0-13.48,2.52-14.98,1.82,0,0-.64-15.82-5.87-29.37,0,0,9.46.75,32-6.54Z"/>
          </g>
          <g id="_Repetición_de_cuadrícula_-35" data-name="&amp;lt;Repetición de cuadrícula&amp;gt;">
            <path class="cls-18" d="m304.52,234.12s14.03.33,14.83.7c0,0,4.18,18.76,8.4,30.79,0,0-18.46-1.34-30.36-.51,0,0-2.18-5.69-4.55-14.91l15.35-.37-3.65-15.7Z"/>
            <path class="cls-10" d="m295.79,230.13s3.05,7.41,4.01,13.26c0,0-13.04,3.89-17.12,4.76,0,0,1.83,10.38,1.96,16.07,0,0-13.48,2.52-14.98,1.82,0,0-.64-15.82-5.87-29.37,0,0,9.46.75,32-6.54Z"/>
          </g>
          <g id="_Repetición_de_cuadrícula_-36" data-name="&amp;lt;Repetición de cuadrícula&amp;gt;">
            <path class="cls-18" d="m370.47,234.12s14.03.33,14.83.7c0,0,4.18,18.76,8.4,30.79,0,0-18.46-1.34-30.36-.51,0,0-2.18-5.69-4.55-14.91l15.35-.37-3.65-15.7Z"/>
            <path class="cls-10" d="m361.74,230.13s3.05,7.41,4.01,13.26c0,0-13.04,3.89-17.12,4.76,0,0,1.83,10.38,1.96,16.07,0,0-13.48,2.52-14.98,1.82,0,0-.64-15.82-5.87-29.37,0,0,9.46.75,32-6.54Z"/>
          </g>
          <g id="_Repetición_de_cuadrícula_-37" data-name="&amp;lt;Repetición de cuadrícula&amp;gt;">
            <path class="cls-18" d="m40.73,280.14s14.03.33,14.83.7c0,0,4.18,18.76,8.4,30.79,0,0-18.46-1.34-30.36-.51,0,0-2.18-5.69-4.55-14.91l15.35-.37-3.65-15.7Z"/>
            <path class="cls-10" d="m32,276.16s3.05,7.41,4.01,13.26c0,0-13.04,3.89-17.12,4.76,0,0,1.83,10.38,1.96,16.07,0,0-13.48,2.52-14.98,1.82,0,0-.64-15.82-5.87-29.37,0,0,9.46.75,32-6.54Z"/>
          </g>
          <g id="_Repetición_de_cuadrícula_-38" data-name="&amp;lt;Repetición de cuadrícula&amp;gt;">
            <path class="cls-18" d="m106.68,280.14s14.03.33,14.83.7c0,0,4.18,18.76,8.4,30.79,0,0-18.46-1.34-30.36-.51,0,0-2.18-5.69-4.55-14.91l15.35-.37-3.65-15.7Z"/>
            <path class="cls-10" d="m97.95,276.16s3.05,7.41,4.01,13.26c0,0-13.04,3.89-17.12,4.76,0,0,1.83,10.38,1.96,16.07,0,0-13.48,2.52-14.98,1.82,0,0-.64-15.82-5.87-29.37,0,0,9.46.75,32-6.54Z"/>
          </g>
          <g id="_Repetición_de_cuadrícula_-39" data-name="&amp;lt;Repetición de cuadrícula&amp;gt;">
            <path class="cls-18" d="m172.62,280.14s14.03.33,14.83.7c0,0,4.18,18.76,8.4,30.79,0,0-18.46-1.34-30.36-.51,0,0-2.18-5.69-4.55-14.91l15.35-.37-3.65-15.7Z"/>
            <path class="cls-10" d="m163.9,276.16s3.05,7.41,4.01,13.26c0,0-13.04,3.89-17.12,4.76,0,0,1.83,10.38,1.96,16.07,0,0-13.48,2.52-14.98,1.82,0,0-.64-15.82-5.87-29.37,0,0,9.46.75,32-6.54Z"/>
          </g>
          <g id="_Repetición_de_cuadrícula_-40" data-name="&amp;lt;Repetición de cuadrícula&amp;gt;">
            <path class="cls-18" d="m238.57,280.14s14.03.33,14.83.7c0,0,4.18,18.76,8.4,30.79,0,0-18.46-1.34-30.36-.51,0,0-2.18-5.69-4.55-14.91l15.35-.37-3.65-15.7Z"/>
            <path class="cls-10" d="m229.84,276.16s3.05,7.41,4.01,13.26c0,0-13.04,3.89-17.12,4.76,0,0,1.83,10.38,1.96,16.07,0,0-13.48,2.52-14.98,1.82,0,0-.64-15.82-5.87-29.37,0,0,9.46.75,32-6.54Z"/>
          </g>
          <g id="_Repetición_de_cuadrícula_-41" data-name="&amp;lt;Repetición de cuadrícula&amp;gt;">
            <path class="cls-18" d="m304.52,280.14s14.03.33,14.83.7c0,0,4.18,18.76,8.4,30.79,0,0-18.46-1.34-30.36-.51,0,0-2.18-5.69-4.55-14.91l15.35-.37-3.65-15.7Z"/>
            <path class="cls-10" d="m295.79,276.16s3.05,7.41,4.01,13.26c0,0-13.04,3.89-17.12,4.76,0,0,1.83,10.38,1.96,16.07,0,0-13.48,2.52-14.98,1.82,0,0-.64-15.82-5.87-29.37,0,0,9.46.75,32-6.54Z"/>
          </g>
          <g id="_Repetición_de_cuadrícula_-42" data-name="&amp;lt;Repetición de cuadrícula&amp;gt;">
            <path class="cls-18" d="m370.47,280.14s14.03.33,14.83.7c0,0,4.18,18.76,8.4,30.79,0,0-18.46-1.34-30.36-.51,0,0-2.18-5.69-4.55-14.91l15.35-.37-3.65-15.7Z"/>
            <path class="cls-10" d="m361.74,276.16s3.05,7.41,4.01,13.26c0,0-13.04,3.89-17.12,4.76,0,0,1.83,10.38,1.96,16.07,0,0-13.48,2.52-14.98,1.82,0,0-.64-15.82-5.87-29.37,0,0,9.46.75,32-6.54Z"/>
          </g>
          <g id="_Repetición_de_cuadrícula_-43" data-name="&amp;lt;Repetición de cuadrícula&amp;gt;">
            <path class="cls-18" d="m40.73,326.17s14.03.33,14.83.7c0,0,4.18,18.76,8.4,30.79,0,0-18.46-1.34-30.36-.51,0,0-2.18-5.69-4.55-14.91l15.35-.37-3.65-15.7Z"/>
            <path class="cls-10" d="m32,322.19s3.05,7.41,4.01,13.26c0,0-13.04,3.89-17.12,4.76,0,0,1.83,10.38,1.96,16.07,0,0-13.48,2.52-14.98,1.82,0,0-.64-15.82-5.87-29.37,0,0,9.46.75,32-6.54Z"/>
          </g>
          <g id="_Repetición_de_cuadrícula_-44" data-name="&amp;lt;Repetición de cuadrícula&amp;gt;">
            <path class="cls-18" d="m106.68,326.17s14.03.33,14.83.7c0,0,4.18,18.76,8.4,30.79,0,0-18.46-1.34-30.36-.51,0,0-2.18-5.69-4.55-14.91l15.35-.37-3.65-15.7Z"/>
            <path class="cls-10" d="m97.95,322.19s3.05,7.41,4.01,13.26c0,0-13.04,3.89-17.12,4.76,0,0,1.83,10.38,1.96,16.07,0,0-13.48,2.52-14.98,1.82,0,0-.64-15.82-5.87-29.37,0,0,9.46.75,32-6.54Z"/>
          </g>
          <g id="_Repetición_de_cuadrícula_-45" data-name="&amp;lt;Repetición de cuadrícula&amp;gt;">
            <path class="cls-18" d="m172.62,326.17s14.03.33,14.83.7c0,0,4.18,18.76,8.4,30.79,0,0-18.46-1.34-30.36-.51,0,0-2.18-5.69-4.55-14.91l15.35-.37-3.65-15.7Z"/>
            <path class="cls-10" d="m163.9,322.19s3.05,7.41,4.01,13.26c0,0-13.04,3.89-17.12,4.76,0,0,1.83,10.38,1.96,16.07,0,0-13.48,2.52-14.98,1.82,0,0-.64-15.82-5.87-29.37,0,0,9.46.75,32-6.54Z"/>
          </g>
          <g id="_Repetición_de_cuadrícula_-46" data-name="&amp;lt;Repetición de cuadrícula&amp;gt;">
            <path class="cls-18" d="m238.57,326.17s14.03.33,14.83.7c0,0,4.18,18.76,8.4,30.79,0,0-18.46-1.34-30.36-.51,0,0-2.18-5.69-4.55-14.91l15.35-.37-3.65-15.7Z"/>
            <path class="cls-10" d="m229.84,322.19s3.05,7.41,4.01,13.26c0,0-13.04,3.89-17.12,4.76,0,0,1.83,10.38,1.96,16.07,0,0-13.48,2.52-14.98,1.82,0,0-.64-15.82-5.87-29.37,0,0,9.46.75,32-6.54Z"/>
          </g>
          <g id="_Repetición_de_cuadrícula_-47" data-name="&amp;lt;Repetición de cuadrícula&amp;gt;">
            <path class="cls-18" d="m304.52,326.17s14.03.33,14.83.7c0,0,4.18,18.76,8.4,30.79,0,0-18.46-1.34-30.36-.51,0,0-2.18-5.69-4.55-14.91l15.35-.37-3.65-15.7Z"/>
            <path class="cls-10" d="m295.79,322.19s3.05,7.41,4.01,13.26c0,0-13.04,3.89-17.12,4.76,0,0,1.83,10.38,1.96,16.07,0,0-13.48,2.52-14.98,1.82,0,0-.64-15.82-5.87-29.37,0,0,9.46.75,32-6.54Z"/>
          </g>
          <g id="_Repetición_de_cuadrícula_-48" data-name="&amp;lt;Repetición de cuadrícula&amp;gt;">
            <path class="cls-18" d="m370.47,326.17s14.03.33,14.83.7c0,0,4.18,18.76,8.4,30.79,0,0-18.46-1.34-30.36-.51,0,0-2.18-5.69-4.55-14.91l15.35-.37-3.65-15.7Z"/>
            <path class="cls-10" d="m361.74,322.19s3.05,7.41,4.01,13.26c0,0-13.04,3.89-17.12,4.76,0,0,1.83,10.38,1.96,16.07,0,0-13.48,2.52-14.98,1.82,0,0-.64-15.82-5.87-29.37,0,0,9.46.75,32-6.54Z"/>
          </g>
          <g id="_Repetición_de_cuadrícula_-49" data-name="&amp;lt;Repetición de cuadrícula&amp;gt;">
            <path class="cls-18" d="m40.73,372.2s14.03.33,14.83.7c0,0,4.18,18.76,8.4,30.79,0,0-18.46-1.34-30.36-.51,0,0-2.18-5.69-4.55-14.91l15.35-.37-3.65-15.7Z"/>
            <path class="cls-10" d="m32,368.21s3.05,7.41,4.01,13.26c0,0-13.04,3.89-17.12,4.76,0,0,1.83,10.38,1.96,16.07,0,0-13.48,2.52-14.98,1.82,0,0-.64-15.82-5.87-29.37,0,0,9.46.75,32-6.54Z"/>
          </g>
          <g id="_Repetición_de_cuadrícula_-50" data-name="&amp;lt;Repetición de cuadrícula&amp;gt;">
            <path class="cls-18" d="m106.68,372.2s14.03.33,14.83.7c0,0,4.18,18.76,8.4,30.79,0,0-18.46-1.34-30.36-.51,0,0-2.18-5.69-4.55-14.91l15.35-.37-3.65-15.7Z"/>
            <path class="cls-10" d="m97.95,368.21s3.05,7.41,4.01,13.26c0,0-13.04,3.89-17.12,4.76,0,0,1.83,10.38,1.96,16.07,0,0-13.48,2.52-14.98,1.82,0,0-.64-15.82-5.87-29.37,0,0,9.46.75,32-6.54Z"/>
          </g>
          <g id="_Repetición_de_cuadrícula_-51" data-name="&amp;lt;Repetición de cuadrícula&amp;gt;">
            <path class="cls-18" d="m172.62,372.2s14.03.33,14.83.7c0,0,4.18,18.76,8.4,30.79,0,0-18.46-1.34-30.36-.51,0,0-2.18-5.69-4.55-14.91l15.35-.37-3.65-15.7Z"/>
            <path class="cls-10" d="m163.9,368.21s3.05,7.41,4.01,13.26c0,0-13.04,3.89-17.12,4.76,0,0,1.83,10.38,1.96,16.07,0,0-13.48,2.52-14.98,1.82,0,0-.64-15.82-5.87-29.37,0,0,9.46.75,32-6.54Z"/>
          </g>
          <g id="_Repetición_de_cuadrícula_-52" data-name="&amp;lt;Repetición de cuadrícula&amp;gt;">
            <path class="cls-18" d="m238.57,372.2s14.03.33,14.83.7c0,0,4.18,18.76,8.4,30.79,0,0-18.46-1.34-30.36-.51,0,0-2.18-5.69-4.55-14.91l15.35-.37-3.65-15.7Z"/>
            <path class="cls-10" d="m229.84,368.21s3.05,7.41,4.01,13.26c0,0-13.04,3.89-17.12,4.76,0,0,1.83,10.38,1.96,16.07,0,0-13.48,2.52-14.98,1.82,0,0-.64-15.82-5.87-29.37,0,0,9.46.75,32-6.54Z"/>
          </g>
          <g id="_Repetición_de_cuadrícula_-53" data-name="&amp;lt;Repetición de cuadrícula&amp;gt;">
            <path class="cls-18" d="m304.52,372.2s14.03.33,14.83.7c0,0,4.18,18.76,8.4,30.79,0,0-18.46-1.34-30.36-.51,0,0-2.18-5.69-4.55-14.91l15.35-.37-3.65-15.7Z"/>
            <path class="cls-10" d="m295.79,368.21s3.05,7.41,4.01,13.26c0,0-13.04,3.89-17.12,4.76,0,0,1.83,10.38,1.96,16.07,0,0-13.48,2.52-14.98,1.82,0,0-.64-15.82-5.87-29.37,0,0,9.46.75,32-6.54Z"/>
          </g>
          <g id="_Repetición_de_cuadrícula_-54" data-name="&amp;lt;Repetición de cuadrícula&amp;gt;">
            <path class="cls-18" d="m370.47,372.2s14.03.33,14.83.7c0,0,4.18,18.76,8.4,30.79,0,0-18.46-1.34-30.36-.51,0,0-2.18-5.69-4.55-14.91l15.35-.37-3.65-15.7Z"/>
            <path class="cls-10" d="m361.74,368.21s3.05,7.41,4.01,13.26c0,0-13.04,3.89-17.12,4.76,0,0,1.83,10.38,1.96,16.07,0,0-13.48,2.52-14.98,1.82,0,0-.64-15.82-5.87-29.37,0,0,9.46.75,32-6.54Z"/>
          </g>
        </g>
      </g>
    </g>
  </g>
  <g>
    <g>
      <text class="cls-5" transform="translate(472.08 213.54)"><tspan class="cls-18" x="0" y="0">Code </tspan><tspan class="cls-3" x="260.76" y="0">A</tspan><tspan class="cls-18" x="324.42" y="0">RT</tspan></text>
      <g>
        <path class="cls-18" d="m384.64,157.88s-26.89,35.24-46.43,71.9l32.98-2.83s23.5-37.23,46.29-63.7l-32.84-5.38Z"/>
        <path class="cls-18" d="m424.27,180.11s12.28-8.5,13.2-8.68c0,0,15.35,13.53,26.51,21.23,0,0-16.73,10.41-26.45,18.57,0,0-5.44-3.53-13.26-9.98l12.97-9.93-12.97-11.23Z"/>
        <path class="cls-3" d="m414.27,182.15s7.27,4.46,11.75,8.9c0,0-8.78,11.51-11.75,14.82,0,0,8.07,7.78,11.75,12.6,0,0-10.02,10.61-11.75,10.95,0,0-10.45-13.21-23.45-21.59,0,0,8.61-5.28,23.44-25.67Z"/>
      </g>
    </g>
    <text class="cls-6" transform="translate(472.08 251.7)"><tspan class="cls-7" x="0" y="0">D</tspan><tspan x="18.43" y="0">iseño G</tspan><tspan class="cls-1" x="110.03" y="0">r</tspan><tspan class="cls-9" x="121.26" y="0">á</tspan><tspan class="cls-2" x="136.85" y="0">f</tspan><tspan x="150.61" y="0">i</tspan><tspan class="cls-13" x="158.21" y="0">c</tspan><tspan x="171.29" y="0">o</tspan></text>
    <text class="cls-6" transform="translate(695.62 251.7)"><tspan class="cls-15" x="0" y="0">P</tspan><tspan x="16.2" y="0">áginas </tspan><tspan class="cls-14" x="105.92" y="0">W</tspan><tspan x="129.97" y="0">eb</tspan></text>
    <text class="cls-4" transform="translate(667.49 255.43)"><tspan x="0" y="0">/</tspan></text>
  </g>
</svg>